<svg t="1716192235327" class="icon" viewBox="0 0 1024 1024" version="1.1" xmlns="http://www.w3.org/2000/svg" p-id="18166" width="200" height="200"><path d="M680.576 757.96c0.424-3.984 1.04-7.376 1.8-10.8 0.344-1.536 0.464-2 0.984-4.064l-0.128 0.56a63.144 63.144 0 0 0-1.544 15.52c0.192 17.232 5.664 35.264 20.712 51.464-3.12-3.36-9.52-9.36-18.888-17.656-3.712-11.6-4.192-23.304-2.936-35.024zM653.84 767.44c0.368-1 0.744-2 1.144-2.992l49.6-58.864 42.4 67.84c-19.28 12.056-25.056 33.92-16.304 47.92 8.752 14.016 30.928 18.408 50.216 6.36l42.392 67.84-77.992 17.84c-4.72-20.664-8.616-35.848-11.04-43.92a156.592 156.592 0 0 1-3.384-4.264 100.392 100.392 0 0 1-10.544-16.792 167.328 167.328 0 0 1-6.12-13.92 91.088 91.088 0 0 1-11.32-10.048c-9.92-10.344-16-20.856-19.384-31.456a1650.608 1650.608 0 0 0-29.664-25.544z m54.504 49.824c-2.16-6.928-2.456-7.872-2.784-8.696 0.264 0.68 0.736 1.712 1.552 3.208 1.664 3.064 3.872 6.32 6.904 9.76 19.544 22.224 43 28.048 64.624 26.04a64.656 64.656 0 0 0 10.776-1.872c-2.104 0.6-3.256 0.92-5.136 1.384-3.936 0.96-7.904 1.72-12.536 2.208-19.32 2.032-39.256-1.184-57.536-14.808-1.984-5.12-3.76-10.472-5.864-17.224z m25.92 52.208a72.176 72.176 0 0 0-1.68-5.08c1.272 3.24 2.672 5.824 4.056 7.864 0.384 0.568 0.304 0.464-0.44-0.44l-1.944-2.344z m-29.68-163.888c28.88 24.336 47.68 41.2 56.416 50.608 2.4 2.576-2.536 10.616-0.36 12.88 2.528 2.648 10.912-3.256 13.448-0.368 8 9.088 10.128 28.488 17.896 44.128 2.872 5.784 11.112 12.2 15.12 22.448 3.864 9.904 9.264 30 16.184 60.272-55.84 34.888-127.68 20.648-160.456-31.808-32.776-52.456-14.08-123.264 41.76-158.16zM324 956a72 72 0 1 1 0-144 72 72 0 0 1 0 144z m0-40a32 32 0 1 0 0-64 32 32 0 0 0 0 64z" fill="#dbdbdb" p-id="18167"></path><path d="M844 956h-24c0-167.896-136.104-304-304-304s-304 136.104-304 304h-24c0-181.152 146.848-328 328-328s328 146.848 328 328zM520 268a60 60 0 1 1 0-120 60 60 0 0 1 0 120z m0-24a36 36 0 1 0 0-72 36 36 0 0 0 0 72z" fill="#dbdbdb" p-id="18168"></path><path d="M508 258.464h24v385.872h-24z" fill="#dbdbdb" p-id="18169"></path><path d="M508.488 248.328l23.024 6.792-120.856 410-23.024-6.784z" fill="#dbdbdb" p-id="18170"></path><path d="M508.44 250.608l23.12-6.44 116.728 419.008-23.12 6.44z" fill="#dbdbdb" p-id="18171"></path><path d="M451.856 449.192l15.432-18.384 146.28 122.8-92.48 94.776-17.184-16.768 74.424-76.256z" fill="#dbdbdb" p-id="18172"></path><path d="M528.8 626.024l-17.6 16.32-86.424-93.176 147.28-107.464 14.152 19.392L460.736 552.64zM439.08 141.52l20.192 12.984c-26.72 41.552-26.72 74.512-1.264 102.16l-17.664 16.256c-33.488-36.376-33.488-81.28-1.264-131.4zM603.256 141.52l-20.184 12.984c26.72 41.552 26.72 74.512 1.264 102.16l17.656 16.256c33.488-36.376 33.488-81.28 1.264-131.4z" fill="#dbdbdb" p-id="18173"></path><path d="M380.848 106.16l21.424 10.816c-34.4 68.112-34.4 122.864-1.192 166.144l-19.04 14.608c-39.424-51.384-39.424-115.872-1.192-191.576zM661.744 106.16l-21.424 10.816c34.4 68.112 34.4 122.864 1.2 166.144l19.04 14.608c39.416-51.384 39.416-115.872 1.184-191.576z" fill="#dbdbdb" p-id="18174"></path><path d="M313.328 62.288l19.968 13.312c-56.344 84.56-56.344 170.6 0.168 260.368l-20.304 12.784c-61.496-97.672-61.496-193.92 0.16-286.464zM711.2 62.288L691.224 75.6c56.352 84.56 56.352 170.6-0.16 260.368l20.304 12.784c61.496-97.672 61.496-193.92-0.168-286.464zM284.472 922.88v-72h85.632v72zM518.816 801.48a42.776 42.776 0 0 1-42.816-42.744 42.776 42.776 0 0 1 42.816-42.736 42.776 42.776 0 0 1 42.824 42.736 42.776 42.776 0 0 1-42.824 42.744z m0-35.616a7.128 7.128 0 1 0 0.016-14.264 7.128 7.128 0 0 0-0.016 14.264zM164 316a48 48 0 1 1 0-96 48 48 0 0 1 0 96z m0-24a24 24 0 1 0 0-48 24 24 0 0 0 0 48zM226.4 602.264v-32h95.256v32z" fill="#dbdbdb" p-id="18175"></path><path d="M258.76 542.32h32v85.48h-32zM728.568 431.136v-32h90.64v32z" fill="#dbdbdb" p-id="18176"></path><path d="M757.792 369.608h32v90.728h-32zM508.96 763.28c0.688 0.736 1.92 1.08 3.392 1.096-1.608-3.096-1.52-6.52-0.624-12.672l0.176-1.264a156.056 156.056 0 0 1-0.512-0.816c-6.24 2.768-7.864 7.976-2.44 13.664z m15.584 2.104l0.048 0.032c0.008 0.016 0.016 0.032 0 0.024l-0.048-0.056z m0.368-6.832l0.04-0.016-0.04 0.016z m-2.32-6.536a4.28 4.28 0 0 0-2.288-3.304c0.816 1.224 1.576 2.32 2.288 3.304z m7.496 7.832c0.016 5.328 0.016 5.328-1.616 5.872-1.04 0.512-0.544 0.224-0.944 0.616-6.48 6.312-18.56 8.56-24.36 2.48-10.416-10.928-5.28-23.12 7.216-27.376 12.576-4.272 23.464 2.8 19.512 17.568a8.96 8.96 0 0 1-0.144 0.488l0.336 0.352z" fill="#dbdbdb" p-id="18177"></path></svg>