<svg t="1716198246740" class="icon" viewBox="0 0 1024 1024" version="1.1" xmlns="http://www.w3.org/2000/svg" p-id="2992" width="200" height="200"><path d="M686.08 205.14816h61.44V312.32c0 124.75392-99.14368 226.34496-222.94528 230.27712L517.12 542.72c-124.75392 0-226.34496-99.14368-230.27712-222.94528L286.72 312.32V208.30208h61.44V312.32C348.16 405.63712 423.80288 481.28 517.12 481.28c91.0336 0 165.26336-71.99744 168.82688-162.16064L686.08 312.32V205.14816z" fill="#000000" p-id="2993"></path><path d="M839.68 51.2a92.16 92.16 0 0 1 92.16 92.16v737.28a92.16 92.16 0 0 1-92.16 92.16H194.56a92.16 92.16 0 0 1-92.16-92.16V143.36a92.16 92.16 0 0 1 92.16-92.16h645.12z m0 61.44H194.56a30.72 30.72 0 0 0-30.5152 27.136L163.84 143.36v737.28a30.72 30.72 0 0 0 27.136 30.5152L194.56 911.36h645.12a30.72 30.72 0 0 0 30.5152-27.136L870.4 880.64V143.36a30.72 30.72 0 0 0-27.136-30.5152L839.68 112.64z" fill="#000000" p-id="2994"></path></svg>