<svg t="1716195393224" class="icon" viewBox="0 0 1024 1024" version="1.1" xmlns="http://www.w3.org/2000/svg" p-id="2115" width="200" height="200"><path d="M793.25 765.125c0 18.196875-8.83125 34.25625-22.303125 44.55A55.771875 55.771875 0 0 1 737 821.375c-31.021875 0-56.25-25.228125-56.25-56.25 0-2.41875 0.421875-4.753125 0.703125-7.115625A56.278125 56.278125 0 0 1 737 708.875c28.265625 0 51.496875 21.0375 55.434375 48.234375 0.365625 2.64375 0.815625 5.259375 0.815625 8.015625M287 568.25c-31.021875 0-56.25-25.228125-56.25-56.25s25.228125-56.25 56.25-56.25a55.9125 55.9125 0 0 1 53.746875 40.584375c1.4625 5.00625 2.503125 10.18125 2.503125 15.665625 0 5.484375-1.040625 10.659375-2.503125 15.665625A55.940625 55.940625 0 0 1 287 568.25M680.75 258.875c0-31.021875 25.228125-56.25 56.25-56.25 12.796875 0 24.46875 4.471875 33.946875 11.7 13.471875 10.29375 22.303125 26.353125 22.303125 44.55 0 2.75625-0.45 5.371875-0.815625 8.015625A56.165625 56.165625 0 0 1 737 315.125a56.278125 56.278125 0 0 1-55.546875-49.134375C681.171875 263.628125 680.75 261.29375 680.75 258.875m56.25 393.75a111.571875 111.571875 0 0 0-74.98125 29.19375l-264.2625-152.578125A108.84375 108.84375 0 0 0 399.5 512c0-5.90625-0.84375-11.5875-1.74375-17.240625l264.2625-152.578125A111.571875 111.571875 0 0 0 737 371.375a112.5 112.5 0 0 0 109.96875-135.95625 111.796875 111.796875 0 0 0-25.565625-50.23125A111.76875 111.76875 0 0 0 737 146.375a112.5 112.5 0 0 0-112.5 112.5c0 12.76875 2.5875 24.80625 6.496875 36.253125l-255.853125 147.740625C354.528125 416.65625 322.915625 399.5 287 399.5a112.5 112.5 0 0 0 0 225c35.915625 0 67.528125-17.15625 88.14375-43.36875l255.853125 147.740625A111.54375 111.54375 0 0 0 624.5 765.125a112.5 112.5 0 0 0 112.5 112.5 111.76875 111.76875 0 0 0 84.403125-38.8125A111.796875 111.796875 0 0 0 849.5 765.125a112.5 112.5 0 0 0-112.5-112.5" fill="#181818" p-id="2116"></path></svg>